<mxfile host="app.diagrams.net" agent="Mozilla/5.0 (Windows NT 10.0; Win64; x64) AppleWebKit/537.36 (KHTML, like Gecko) Chrome/139.0.0.0 Safari/537.36 Edg/139.0.0.0" version="28.1.0">
  <diagram name="Page-1" id="58cdce13-f638-feb5-8d6f-7d28b1aa9fa0">
    <mxGraphModel dx="1620" dy="767" grid="1" gridSize="10" guides="1" tooltips="1" connect="1" arrows="1" fold="1" page="1" pageScale="1" pageWidth="1100" pageHeight="850" background="none" math="0" shadow="0">
      <root>
        <mxCell id="0" />
        <mxCell id="1" parent="0" />
        <mxCell id="382b91b5511bd0f7-1" value="" style="ellipse;html=1;shape=startState;fillColor=#000000;strokeColor=#ff0000;rounded=1;shadow=0;comic=0;labelBackgroundColor=none;fontFamily=Verdana;fontSize=12;fontColor=#000000;align=center;direction=south;" parent="1" vertex="1">
          <mxGeometry x="110" y="40" width="30" height="30" as="geometry" />
        </mxCell>
        <mxCell id="382b91b5511bd0f7-6" value="Connect to database BLE.db" style="rounded=1;whiteSpace=wrap;html=1;arcSize=24;fillColor=#ffffc0;strokeColor=#FF0000;shadow=0;comic=0;labelBackgroundColor=none;fontFamily=Verdana;fontSize=12;fontColor=#000000;align=center;" parent="1" vertex="1">
          <mxGeometry x="65" y="100" width="120" height="60" as="geometry" />
        </mxCell>
        <mxCell id="24f968d109e7d6b4-3" value="" style="ellipse;html=1;shape=endState;fillColor=#000000;strokeColor=#ff0000;rounded=1;shadow=0;comic=0;labelBackgroundColor=none;fontFamily=Verdana;fontSize=12;fontColor=#000000;align=center;" parent="1" vertex="1">
          <mxGeometry x="110" y="490" width="30" height="30" as="geometry" />
        </mxCell>
        <mxCell id="3cde6dad864a17aa-12" style="edgeStyle=elbowEdgeStyle;html=1;labelBackgroundColor=none;endArrow=open;endSize=8;strokeColor=#ff0000;fontFamily=Verdana;fontSize=12;align=left;entryX=0;entryY=0.5;entryDx=0;entryDy=0;" parent="1" source="hBEnvzYEh9CuPVGx5UaX-15" target="24f968d109e7d6b4-3" edge="1">
          <mxGeometry relative="1" as="geometry">
            <mxPoint y="349.9999999999999" as="sourcePoint" />
            <mxPoint x="95" y="550" as="targetPoint" />
            <Array as="points">
              <mxPoint x="10" y="440" />
            </Array>
          </mxGeometry>
        </mxCell>
        <mxCell id="hBEnvzYEh9CuPVGx5UaX-20" value="No" style="edgeLabel;html=1;align=center;verticalAlign=middle;resizable=0;points=[];" vertex="1" connectable="0" parent="3cde6dad864a17aa-12">
          <mxGeometry x="-0.5463" relative="1" as="geometry">
            <mxPoint x="10" y="1" as="offset" />
          </mxGeometry>
        </mxCell>
        <mxCell id="-b5_aeEiTCpsvocbng9k-6" value="for m in messages" style="rhombus;whiteSpace=wrap;html=1;fillColor=#FFFFCC;strokeColor=#FF0000;" parent="1" vertex="1">
          <mxGeometry x="418" y="90" width="134" height="60" as="geometry" />
        </mxCell>
        <mxCell id="-b5_aeEiTCpsvocbng9k-25" value="&lt;h1 style=&quot;margin-top: 0px;&quot;&gt;initBLEcomm.py&lt;/h1&gt;" style="text;html=1;whiteSpace=wrap;overflow=hidden;rounded=0;" parent="1" vertex="1">
          <mxGeometry width="320" height="50" as="geometry" />
        </mxCell>
        <mxCell id="rV2Ys3GXxWUU0AGFriuB-3" style="edgeStyle=orthogonalEdgeStyle;html=1;labelBackgroundColor=none;endArrow=open;endSize=8;strokeColor=#ff0000;fontFamily=Verdana;fontSize=12;align=left;exitX=0.5;exitY=1;exitDx=0;exitDy=0;entryX=0.5;entryY=0;entryDx=0;entryDy=0;" parent="1" source="hBEnvzYEh9CuPVGx5UaX-8" target="hBEnvzYEh9CuPVGx5UaX-9" edge="1">
          <mxGeometry relative="1" as="geometry">
            <mxPoint x="412" y="252" as="sourcePoint" />
            <mxPoint x="411.521739130435" y="292" as="targetPoint" />
          </mxGeometry>
        </mxCell>
        <mxCell id="hBEnvzYEh9CuPVGx5UaX-10" value="Yes" style="edgeLabel;html=1;align=center;verticalAlign=middle;resizable=0;points=[];" vertex="1" connectable="0" parent="rV2Ys3GXxWUU0AGFriuB-3">
          <mxGeometry x="-0.0653" y="2" relative="1" as="geometry">
            <mxPoint as="offset" />
          </mxGeometry>
        </mxCell>
        <mxCell id="FOoScroTNqUPBx7kzsJf-6" style="edgeStyle=orthogonalEdgeStyle;html=1;labelBackgroundColor=none;endArrow=open;endSize=8;strokeColor=#ff0000;fontFamily=Verdana;fontSize=12;align=left;exitX=0.5;exitY=1;exitDx=0;exitDy=0;" parent="1" source="-b5_aeEiTCpsvocbng9k-6" target="hBEnvzYEh9CuPVGx5UaX-8" edge="1">
          <mxGeometry relative="1" as="geometry">
            <mxPoint x="408.5" y="252" as="sourcePoint" />
            <mxPoint x="541" y="212" as="targetPoint" />
          </mxGeometry>
        </mxCell>
        <mxCell id="hBEnvzYEh9CuPVGx5UaX-4" value="m != NULL" style="edgeLabel;html=1;align=center;verticalAlign=middle;resizable=0;points=[];" vertex="1" connectable="0" parent="FOoScroTNqUPBx7kzsJf-6">
          <mxGeometry x="-0.3225" relative="1" as="geometry">
            <mxPoint as="offset" />
          </mxGeometry>
        </mxCell>
        <mxCell id="FOoScroTNqUPBx7kzsJf-9" style="edgeStyle=orthogonalEdgeStyle;html=1;labelBackgroundColor=none;endArrow=open;endSize=8;strokeColor=#ff0000;fontFamily=Verdana;fontSize=12;align=left;exitX=1;exitY=0.5;exitDx=0;exitDy=0;entryX=0.5;entryY=0;entryDx=0;entryDy=0;" parent="1" source="382b91b5511bd0f7-1" target="382b91b5511bd0f7-6" edge="1">
          <mxGeometry relative="1" as="geometry">
            <mxPoint x="89.5" y="167" as="sourcePoint" />
            <mxPoint x="155" y="235" as="targetPoint" />
          </mxGeometry>
        </mxCell>
        <mxCell id="hBEnvzYEh9CuPVGx5UaX-1" value="f_MAC := False&lt;div&gt;f_RSSI := False&lt;/div&gt;&lt;div&gt;message_receive := False&lt;/div&gt;" style="rounded=1;whiteSpace=wrap;html=1;arcSize=24;fillColor=#ffffc0;strokeColor=#FF0000;shadow=0;comic=0;labelBackgroundColor=none;fontFamily=Verdana;fontSize=12;fontColor=#000000;align=center;" vertex="1" parent="1">
          <mxGeometry x="45" y="202" width="160" height="68" as="geometry" />
        </mxCell>
        <mxCell id="hBEnvzYEh9CuPVGx5UaX-2" value="Save in messages all the registers of BLE.BLE_Table" style="rounded=1;whiteSpace=wrap;html=1;arcSize=24;fillColor=#ffffc0;strokeColor=#FF0000;shadow=0;comic=0;labelBackgroundColor=none;fontFamily=Verdana;fontSize=12;fontColor=#000000;align=center;" vertex="1" parent="1">
          <mxGeometry x="65" y="395" width="120" height="60" as="geometry" />
        </mxCell>
        <mxCell id="hBEnvzYEh9CuPVGx5UaX-6" style="edgeStyle=orthogonalEdgeStyle;html=1;labelBackgroundColor=none;endArrow=open;endSize=8;strokeColor=#ff0000;fontFamily=Verdana;fontSize=12;align=left;exitX=0.5;exitY=0;exitDx=0;exitDy=0;entryX=1;entryY=0.5;entryDx=0;entryDy=0;" edge="1" parent="1" source="-b5_aeEiTCpsvocbng9k-6" target="hBEnvzYEh9CuPVGx5UaX-15">
          <mxGeometry relative="1" as="geometry">
            <mxPoint x="499.5000000000001" y="9.989999999999887" as="sourcePoint" />
            <mxPoint x="185.00000000000006" y="324.99" as="targetPoint" />
            <Array as="points">
              <mxPoint x="485" y="50" />
              <mxPoint x="240" y="50" />
              <mxPoint x="240" y="325" />
            </Array>
          </mxGeometry>
        </mxCell>
        <mxCell id="hBEnvzYEh9CuPVGx5UaX-7" value="m = NULL" style="edgeLabel;html=1;align=center;verticalAlign=middle;resizable=0;points=[];" vertex="1" connectable="0" parent="hBEnvzYEh9CuPVGx5UaX-6">
          <mxGeometry x="-0.8234" y="2" relative="1" as="geometry">
            <mxPoint x="-31" y="-2" as="offset" />
          </mxGeometry>
        </mxCell>
        <mxCell id="hBEnvzYEh9CuPVGx5UaX-8" value="&lt;div&gt;&lt;span style=&quot;background-color: transparent; color: light-dark(rgb(0, 0, 0), rgb(255, 255, 255));&quot;&gt;&lt;br&gt;&lt;/span&gt;&lt;/div&gt;&lt;div&gt;&lt;span style=&quot;background-color: transparent; color: light-dark(rgb(0, 0, 0), rgb(255, 255, 255));&quot;&gt;m has &quot;RSSIc&quot; prefix, 4 thresholds&lt;/span&gt;&lt;/div&gt;&lt;div&gt;&amp;nbsp;and 1 flag and f_RSSI = False&lt;/div&gt;" style="rhombus;whiteSpace=wrap;html=1;fillColor=#FFFFCC;strokeColor=#FF0000;" vertex="1" parent="1">
          <mxGeometry x="360.5" y="200" width="249" height="110" as="geometry" />
        </mxCell>
        <mxCell id="hBEnvzYEh9CuPVGx5UaX-9" value="coincidence_flag = True&amp;nbsp;" style="rhombus;whiteSpace=wrap;html=1;fillColor=#FFFFCC;strokeColor=#FF0000;" vertex="1" parent="1">
          <mxGeometry x="375" y="364" width="220" height="50" as="geometry" />
        </mxCell>
        <mxCell id="hBEnvzYEh9CuPVGx5UaX-11" value="&lt;div&gt;&lt;span style=&quot;background-color: transparent; color: light-dark(rgb(0, 0, 0), rgb(255, 255, 255));&quot;&gt;&lt;br&gt;&lt;/span&gt;&lt;/div&gt;&lt;div&gt;&lt;span style=&quot;background-color: transparent; color: light-dark(rgb(0, 0, 0), rgb(255, 255, 255));&quot;&gt;m is MAC request frame&amp;nbsp;&lt;/span&gt;&lt;/div&gt;&lt;div&gt;and f_MAC = False&lt;/div&gt;" style="rhombus;whiteSpace=wrap;html=1;fillColor=#FFFFCC;strokeColor=#FF0000;" vertex="1" parent="1">
          <mxGeometry x="780" y="169" width="230" height="70" as="geometry" />
        </mxCell>
        <mxCell id="hBEnvzYEh9CuPVGx5UaX-12" style="edgeStyle=orthogonalEdgeStyle;html=1;labelBackgroundColor=none;endArrow=open;endSize=8;strokeColor=#ff0000;fontFamily=Verdana;fontSize=12;align=left;exitX=1;exitY=0.5;exitDx=0;exitDy=0;entryX=0;entryY=0.5;entryDx=0;entryDy=0;" edge="1" parent="1" source="hBEnvzYEh9CuPVGx5UaX-8" target="hBEnvzYEh9CuPVGx5UaX-11">
          <mxGeometry relative="1" as="geometry">
            <mxPoint x="740" y="270" as="sourcePoint" />
            <mxPoint x="740" y="315" as="targetPoint" />
            <Array as="points">
              <mxPoint x="610" y="204" />
            </Array>
          </mxGeometry>
        </mxCell>
        <mxCell id="hBEnvzYEh9CuPVGx5UaX-13" value="No" style="edgeLabel;html=1;align=center;verticalAlign=middle;resizable=0;points=[];" vertex="1" connectable="0" parent="hBEnvzYEh9CuPVGx5UaX-12">
          <mxGeometry x="-0.0653" y="2" relative="1" as="geometry">
            <mxPoint x="-27" y="61" as="offset" />
          </mxGeometry>
        </mxCell>
        <mxCell id="hBEnvzYEh9CuPVGx5UaX-15" value="message_receive = False ?" style="rhombus;whiteSpace=wrap;html=1;fillColor=#FFFFCC;strokeColor=#FF0000;" vertex="1" parent="1">
          <mxGeometry x="30" y="300" width="190" height="50" as="geometry" />
        </mxCell>
        <mxCell id="hBEnvzYEh9CuPVGx5UaX-16" style="edgeStyle=orthogonalEdgeStyle;html=1;labelBackgroundColor=none;endArrow=open;endSize=8;strokeColor=#ff0000;fontFamily=Verdana;fontSize=12;align=left;exitX=0.5;exitY=1;exitDx=0;exitDy=0;entryX=0.5;entryY=0;entryDx=0;entryDy=0;" edge="1" parent="1" source="hBEnvzYEh9CuPVGx5UaX-1" target="hBEnvzYEh9CuPVGx5UaX-15">
          <mxGeometry relative="1" as="geometry">
            <mxPoint x="210" y="360" as="sourcePoint" />
            <mxPoint x="210" y="402" as="targetPoint" />
            <Array as="points">
              <mxPoint x="125" y="280" />
              <mxPoint x="125" y="280" />
            </Array>
          </mxGeometry>
        </mxCell>
        <mxCell id="hBEnvzYEh9CuPVGx5UaX-17" style="edgeStyle=orthogonalEdgeStyle;html=1;labelBackgroundColor=none;endArrow=open;endSize=8;strokeColor=#ff0000;fontFamily=Verdana;fontSize=12;align=left;exitX=0.5;exitY=1;exitDx=0;exitDy=0;entryX=0.5;entryY=0;entryDx=0;entryDy=0;" edge="1" parent="1" source="382b91b5511bd0f7-6" target="hBEnvzYEh9CuPVGx5UaX-1">
          <mxGeometry relative="1" as="geometry">
            <mxPoint x="240" y="90" as="sourcePoint" />
            <mxPoint x="240" y="120" as="targetPoint" />
          </mxGeometry>
        </mxCell>
        <mxCell id="hBEnvzYEh9CuPVGx5UaX-18" style="edgeStyle=orthogonalEdgeStyle;html=1;labelBackgroundColor=none;endArrow=open;endSize=8;strokeColor=#ff0000;fontFamily=Verdana;fontSize=12;align=left;exitX=0.5;exitY=1;exitDx=0;exitDy=0;entryX=0.5;entryY=0;entryDx=0;entryDy=0;" edge="1" parent="1" source="hBEnvzYEh9CuPVGx5UaX-15" target="hBEnvzYEh9CuPVGx5UaX-2">
          <mxGeometry relative="1" as="geometry">
            <mxPoint x="300" y="310" as="sourcePoint" />
            <mxPoint x="300" y="340" as="targetPoint" />
            <Array as="points">
              <mxPoint x="125" y="360" />
              <mxPoint x="125" y="360" />
            </Array>
          </mxGeometry>
        </mxCell>
        <mxCell id="hBEnvzYEh9CuPVGx5UaX-19" value="Yes" style="edgeLabel;html=1;align=center;verticalAlign=middle;resizable=0;points=[];" vertex="1" connectable="0" parent="hBEnvzYEh9CuPVGx5UaX-18">
          <mxGeometry x="0.0684" y="3" relative="1" as="geometry">
            <mxPoint x="12" as="offset" />
          </mxGeometry>
        </mxCell>
        <mxCell id="hBEnvzYEh9CuPVGx5UaX-22" value="Update init_data.ini with the thresholds received.&lt;div&gt;&lt;br&gt;&lt;/div&gt;&lt;div&gt;message_BLE := &quot;WCON0&quot;&amp;nbsp;&lt;/div&gt;" style="rounded=1;whiteSpace=wrap;html=1;arcSize=24;fillColor=#ffffc0;strokeColor=#FF0000;shadow=0;comic=0;labelBackgroundColor=none;fontFamily=Verdana;fontSize=12;fontColor=#000000;align=center;" vertex="1" parent="1">
          <mxGeometry x="254" y="464" width="190" height="68" as="geometry" />
        </mxCell>
        <mxCell id="hBEnvzYEh9CuPVGx5UaX-23" style="edgeStyle=orthogonalEdgeStyle;html=1;labelBackgroundColor=none;endArrow=open;endSize=8;strokeColor=#ff0000;fontFamily=Verdana;fontSize=12;align=left;entryX=0.5;entryY=0;entryDx=0;entryDy=0;" edge="1" parent="1" target="hBEnvzYEh9CuPVGx5UaX-22">
          <mxGeometry relative="1" as="geometry">
            <mxPoint x="374" y="394" as="sourcePoint" />
            <mxPoint x="684" y="429" as="targetPoint" />
            <Array as="points">
              <mxPoint x="349" y="394" />
            </Array>
          </mxGeometry>
        </mxCell>
        <mxCell id="hBEnvzYEh9CuPVGx5UaX-24" value="Yes" style="edgeLabel;html=1;align=center;verticalAlign=middle;resizable=0;points=[];" vertex="1" connectable="0" parent="hBEnvzYEh9CuPVGx5UaX-23">
          <mxGeometry x="-0.0653" y="2" relative="1" as="geometry">
            <mxPoint x="-2" y="6" as="offset" />
          </mxGeometry>
        </mxCell>
        <mxCell id="hBEnvzYEh9CuPVGx5UaX-26" value="&lt;div&gt;&lt;br&gt;&lt;/div&gt;Received thresholds = init_data.ini thresholds ?" style="rhombus;whiteSpace=wrap;html=1;fillColor=#FFFFCC;strokeColor=#FF0000;" vertex="1" parent="1">
          <mxGeometry x="514" y="469" width="220" height="75" as="geometry" />
        </mxCell>
        <mxCell id="hBEnvzYEh9CuPVGx5UaX-27" style="edgeStyle=orthogonalEdgeStyle;html=1;labelBackgroundColor=none;endArrow=open;endSize=8;strokeColor=#ff0000;fontFamily=Verdana;fontSize=12;align=left;entryX=0.5;entryY=0;entryDx=0;entryDy=0;exitX=1;exitY=0.5;exitDx=0;exitDy=0;" edge="1" parent="1" source="hBEnvzYEh9CuPVGx5UaX-9" target="hBEnvzYEh9CuPVGx5UaX-26">
          <mxGeometry relative="1" as="geometry">
            <mxPoint x="669" y="334" as="sourcePoint" />
            <mxPoint x="644" y="404" as="targetPoint" />
            <Array as="points">
              <mxPoint x="624" y="389" />
            </Array>
          </mxGeometry>
        </mxCell>
        <mxCell id="hBEnvzYEh9CuPVGx5UaX-28" value="No" style="edgeLabel;html=1;align=center;verticalAlign=middle;resizable=0;points=[];" vertex="1" connectable="0" parent="hBEnvzYEh9CuPVGx5UaX-27">
          <mxGeometry x="-0.0653" y="2" relative="1" as="geometry">
            <mxPoint x="-2" y="6" as="offset" />
          </mxGeometry>
        </mxCell>
        <mxCell id="hBEnvzYEh9CuPVGx5UaX-29" value="&lt;div&gt;&lt;span style=&quot;background-color: transparent; color: light-dark(rgb(0, 0, 0), rgb(237, 237, 237));&quot;&gt;message_BLE := &quot;WRSSIa:&quot; + init_data.ini thresholds&amp;nbsp;&lt;/span&gt;&lt;/div&gt;" style="rounded=1;whiteSpace=wrap;html=1;arcSize=24;fillColor=#ffffc0;strokeColor=#FF0000;shadow=0;comic=0;labelBackgroundColor=none;fontFamily=Verdana;fontSize=12;fontColor=#000000;align=center;" vertex="1" parent="1">
          <mxGeometry x="390" y="565" width="190" height="68" as="geometry" />
        </mxCell>
        <mxCell id="hBEnvzYEh9CuPVGx5UaX-30" style="edgeStyle=orthogonalEdgeStyle;html=1;labelBackgroundColor=none;endArrow=open;endSize=8;strokeColor=#ff0000;fontFamily=Verdana;fontSize=12;align=left;entryX=0.5;entryY=0;entryDx=0;entryDy=0;exitX=0;exitY=0.5;exitDx=0;exitDy=0;" edge="1" parent="1" source="hBEnvzYEh9CuPVGx5UaX-26" target="hBEnvzYEh9CuPVGx5UaX-29">
          <mxGeometry relative="1" as="geometry">
            <mxPoint x="754" y="424" as="sourcePoint" />
            <mxPoint x="783" y="504" as="targetPoint" />
            <Array as="points">
              <mxPoint x="485" y="506" />
            </Array>
          </mxGeometry>
        </mxCell>
        <mxCell id="hBEnvzYEh9CuPVGx5UaX-31" value="No" style="edgeLabel;html=1;align=center;verticalAlign=middle;resizable=0;points=[];" vertex="1" connectable="0" parent="hBEnvzYEh9CuPVGx5UaX-30">
          <mxGeometry x="-0.0653" y="2" relative="1" as="geometry">
            <mxPoint x="-2" y="6" as="offset" />
          </mxGeometry>
        </mxCell>
        <mxCell id="hBEnvzYEh9CuPVGx5UaX-32" value="&lt;div&gt;&lt;span style=&quot;background-color: transparent; color: light-dark(rgb(0, 0, 0), rgb(237, 237, 237));&quot;&gt;message_BLE := &quot;WSO&quot;&lt;/span&gt;&lt;/div&gt;" style="rounded=1;whiteSpace=wrap;html=1;arcSize=24;fillColor=#ffffc0;strokeColor=#FF0000;shadow=0;comic=0;labelBackgroundColor=none;fontFamily=Verdana;fontSize=12;fontColor=#000000;align=center;" vertex="1" parent="1">
          <mxGeometry x="687" y="565" width="160" height="68" as="geometry" />
        </mxCell>
        <mxCell id="hBEnvzYEh9CuPVGx5UaX-33" style="edgeStyle=orthogonalEdgeStyle;html=1;labelBackgroundColor=none;endArrow=open;endSize=8;strokeColor=#ff0000;fontFamily=Verdana;fontSize=12;align=left;entryX=0.5;entryY=0;entryDx=0;entryDy=0;exitX=1;exitY=0.5;exitDx=0;exitDy=0;" edge="1" parent="1" source="hBEnvzYEh9CuPVGx5UaX-26" target="hBEnvzYEh9CuPVGx5UaX-32">
          <mxGeometry relative="1" as="geometry">
            <mxPoint x="633" y="555" as="sourcePoint" />
            <mxPoint x="604" y="613" as="targetPoint" />
            <Array as="points">
              <mxPoint x="767" y="507" />
            </Array>
          </mxGeometry>
        </mxCell>
        <mxCell id="hBEnvzYEh9CuPVGx5UaX-34" value="Yes" style="edgeLabel;html=1;align=center;verticalAlign=middle;resizable=0;points=[];" vertex="1" connectable="0" parent="hBEnvzYEh9CuPVGx5UaX-33">
          <mxGeometry x="-0.0653" y="2" relative="1" as="geometry">
            <mxPoint x="-2" y="6" as="offset" />
          </mxGeometry>
        </mxCell>
        <mxCell id="hBEnvzYEh9CuPVGx5UaX-35" value="&lt;div&gt;&lt;span style=&quot;background-color: transparent; color: light-dark(rgb(0, 0, 0), rgb(237, 237, 237));&quot;&gt;Add message_BLE to BLE.BLE_table_Tx&lt;/span&gt;&lt;/div&gt;" style="rounded=1;whiteSpace=wrap;html=1;arcSize=24;fillColor=#ffffc0;strokeColor=#FF0000;shadow=0;comic=0;labelBackgroundColor=none;fontFamily=Verdana;fontSize=12;fontColor=#000000;align=center;" vertex="1" parent="1">
          <mxGeometry x="490" y="680" width="190" height="68" as="geometry" />
        </mxCell>
        <mxCell id="hBEnvzYEh9CuPVGx5UaX-36" style="edgeStyle=orthogonalEdgeStyle;html=1;labelBackgroundColor=none;endArrow=open;endSize=8;strokeColor=#ff0000;fontFamily=Verdana;fontSize=12;align=left;entryX=0.5;entryY=0;entryDx=0;entryDy=0;exitX=0.5;exitY=1;exitDx=0;exitDy=0;" edge="1" parent="1" source="hBEnvzYEh9CuPVGx5UaX-22" target="hBEnvzYEh9CuPVGx5UaX-35">
          <mxGeometry relative="1" as="geometry">
            <mxPoint x="344" y="543" as="sourcePoint" />
            <mxPoint x="485" y="773" as="targetPoint" />
            <Array as="points">
              <mxPoint x="349" y="650" />
              <mxPoint x="585" y="650" />
            </Array>
          </mxGeometry>
        </mxCell>
        <mxCell id="hBEnvzYEh9CuPVGx5UaX-38" style="edgeStyle=orthogonalEdgeStyle;html=1;labelBackgroundColor=none;endArrow=open;endSize=8;strokeColor=#ff0000;fontFamily=Verdana;fontSize=12;align=left;entryX=0.5;entryY=0;entryDx=0;entryDy=0;exitX=0.5;exitY=1;exitDx=0;exitDy=0;" edge="1" parent="1" source="hBEnvzYEh9CuPVGx5UaX-29" target="hBEnvzYEh9CuPVGx5UaX-35">
          <mxGeometry relative="1" as="geometry">
            <mxPoint x="564" y="643" as="sourcePoint" />
            <mxPoint x="485" y="773" as="targetPoint" />
            <Array as="points">
              <mxPoint x="485" y="650" />
              <mxPoint x="585" y="650" />
            </Array>
          </mxGeometry>
        </mxCell>
        <mxCell id="hBEnvzYEh9CuPVGx5UaX-39" style="edgeStyle=orthogonalEdgeStyle;html=1;labelBackgroundColor=none;endArrow=open;endSize=8;strokeColor=#ff0000;fontFamily=Verdana;fontSize=12;align=left;entryX=0.5;entryY=0;entryDx=0;entryDy=0;exitX=0.5;exitY=1;exitDx=0;exitDy=0;" edge="1" parent="1" source="hBEnvzYEh9CuPVGx5UaX-32" target="hBEnvzYEh9CuPVGx5UaX-35">
          <mxGeometry relative="1" as="geometry">
            <mxPoint x="644" y="643" as="sourcePoint" />
            <mxPoint x="485" y="773" as="targetPoint" />
            <Array as="points">
              <mxPoint x="767" y="650" />
              <mxPoint x="585" y="650" />
            </Array>
          </mxGeometry>
        </mxCell>
        <mxCell id="hBEnvzYEh9CuPVGx5UaX-40" value="&lt;div&gt;&lt;span style=&quot;background-color: transparent; color: light-dark(rgb(0, 0, 0), rgb(237, 237, 237));&quot;&gt;f_RSSI := True&lt;/span&gt;&lt;/div&gt;&lt;div&gt;&lt;span style=&quot;font-family: Helvetica;&quot;&gt;message_receive :=&lt;/span&gt;&lt;span style=&quot;background-color: transparent; color: light-dark(rgb(0, 0, 0), rgb(237, 237, 237));&quot;&gt;&lt;/span&gt;&lt;/div&gt;&lt;div&gt;&lt;span style=&quot;font-family: Helvetica;&quot;&gt;True&lt;/span&gt;&lt;/div&gt;" style="rounded=1;whiteSpace=wrap;html=1;arcSize=24;fillColor=#ffffc0;strokeColor=#FF0000;shadow=0;comic=0;labelBackgroundColor=none;fontFamily=Verdana;fontSize=12;fontColor=#000000;align=center;" vertex="1" parent="1">
          <mxGeometry x="270" y="782.5" width="125" height="55" as="geometry" />
        </mxCell>
        <mxCell id="hBEnvzYEh9CuPVGx5UaX-42" style="edgeStyle=orthogonalEdgeStyle;html=1;labelBackgroundColor=none;endArrow=open;endSize=8;strokeColor=#ff0000;fontFamily=Verdana;fontSize=12;align=left;entryX=0;entryY=0.5;entryDx=0;entryDy=0;exitX=0;exitY=0.5;exitDx=0;exitDy=0;" edge="1" parent="1" source="hBEnvzYEh9CuPVGx5UaX-40" target="-b5_aeEiTCpsvocbng9k-6">
          <mxGeometry relative="1" as="geometry">
            <mxPoint x="1042" y="710" as="sourcePoint" />
            <mxPoint x="760" y="771" as="targetPoint" />
            <Array as="points">
              <mxPoint x="250" y="810" />
              <mxPoint x="250" y="120" />
            </Array>
          </mxGeometry>
        </mxCell>
        <mxCell id="hBEnvzYEh9CuPVGx5UaX-43" value="Add mac_ble_format to BLE.BLE_table_Tx&amp;nbsp;" style="rounded=1;whiteSpace=wrap;html=1;arcSize=24;fillColor=#ffffc0;strokeColor=#FF0000;shadow=0;comic=0;labelBackgroundColor=none;fontFamily=Verdana;fontSize=12;fontColor=#000000;align=center;" vertex="1" parent="1">
          <mxGeometry x="815" y="263" width="160" height="68" as="geometry" />
        </mxCell>
        <mxCell id="hBEnvzYEh9CuPVGx5UaX-44" value="f_MAC := True" style="rounded=1;whiteSpace=wrap;html=1;arcSize=24;fillColor=#ffffc0;strokeColor=#FF0000;shadow=0;comic=0;labelBackgroundColor=none;fontFamily=Verdana;fontSize=12;fontColor=#000000;align=center;" vertex="1" parent="1">
          <mxGeometry x="835" y="464" width="120" height="50" as="geometry" />
        </mxCell>
        <mxCell id="hBEnvzYEh9CuPVGx5UaX-46" style="edgeStyle=orthogonalEdgeStyle;html=1;labelBackgroundColor=none;endArrow=open;endSize=8;strokeColor=#ff0000;fontFamily=Verdana;fontSize=12;align=left;exitX=0.5;exitY=1;exitDx=0;exitDy=0;entryX=0.5;entryY=0;entryDx=0;entryDy=0;" edge="1" parent="1" source="hBEnvzYEh9CuPVGx5UaX-11" target="hBEnvzYEh9CuPVGx5UaX-43">
          <mxGeometry relative="1" as="geometry">
            <mxPoint x="766" y="190" as="sourcePoint" />
            <mxPoint x="766" y="220" as="targetPoint" />
          </mxGeometry>
        </mxCell>
        <mxCell id="hBEnvzYEh9CuPVGx5UaX-49" value="Yes" style="edgeLabel;html=1;align=center;verticalAlign=middle;resizable=0;points=[];" vertex="1" connectable="0" parent="hBEnvzYEh9CuPVGx5UaX-46">
          <mxGeometry x="-0.1919" y="-2" relative="1" as="geometry">
            <mxPoint x="17" as="offset" />
          </mxGeometry>
        </mxCell>
        <mxCell id="hBEnvzYEh9CuPVGx5UaX-50" style="edgeStyle=orthogonalEdgeStyle;html=1;labelBackgroundColor=none;endArrow=open;endSize=8;strokeColor=#ff0000;fontFamily=Verdana;fontSize=12;align=left;exitX=1;exitY=0.5;exitDx=0;exitDy=0;entryX=1;entryY=0.5;entryDx=0;entryDy=0;" edge="1" parent="1" source="hBEnvzYEh9CuPVGx5UaX-11" target="-b5_aeEiTCpsvocbng9k-6">
          <mxGeometry relative="1" as="geometry">
            <mxPoint x="830" y="170" as="sourcePoint" />
            <mxPoint x="1000" y="70" as="targetPoint" />
            <Array as="points">
              <mxPoint x="1040" y="204" />
              <mxPoint x="1040" y="120" />
            </Array>
          </mxGeometry>
        </mxCell>
        <mxCell id="hBEnvzYEh9CuPVGx5UaX-51" value="No" style="edgeLabel;html=1;align=center;verticalAlign=middle;resizable=0;points=[];" vertex="1" connectable="0" parent="hBEnvzYEh9CuPVGx5UaX-50">
          <mxGeometry x="-0.0653" y="2" relative="1" as="geometry">
            <mxPoint x="137" y="68" as="offset" />
          </mxGeometry>
        </mxCell>
        <mxCell id="hBEnvzYEh9CuPVGx5UaX-52" style="edgeStyle=orthogonalEdgeStyle;html=1;labelBackgroundColor=none;endArrow=open;endSize=8;strokeColor=#ff0000;fontFamily=Verdana;fontSize=12;align=left;exitX=0.5;exitY=1;exitDx=0;exitDy=0;entryX=0.5;entryY=0;entryDx=0;entryDy=0;" edge="1" parent="1" source="hBEnvzYEh9CuPVGx5UaX-43" target="hBEnvzYEh9CuPVGx5UaX-62">
          <mxGeometry relative="1" as="geometry">
            <mxPoint x="1020" y="330" as="sourcePoint" />
            <mxPoint x="1020" y="354" as="targetPoint" />
          </mxGeometry>
        </mxCell>
        <mxCell id="hBEnvzYEh9CuPVGx5UaX-54" style="edgeStyle=orthogonalEdgeStyle;html=1;labelBackgroundColor=none;endArrow=open;endSize=8;strokeColor=#ff0000;fontFamily=Verdana;fontSize=12;align=left;exitX=1;exitY=0.5;exitDx=0;exitDy=0;entryX=1;entryY=0.5;entryDx=0;entryDy=0;" edge="1" parent="1" source="hBEnvzYEh9CuPVGx5UaX-44" target="-b5_aeEiTCpsvocbng9k-6">
          <mxGeometry relative="1" as="geometry">
            <mxPoint x="1558" y="334" as="sourcePoint" />
            <mxPoint x="1100" y="250" as="targetPoint" />
            <Array as="points">
              <mxPoint x="1040" y="490" />
              <mxPoint x="1040" y="120" />
            </Array>
          </mxGeometry>
        </mxCell>
        <mxCell id="hBEnvzYEh9CuPVGx5UaX-56" value="Successful message acknowledgement" style="rhombus;whiteSpace=wrap;html=1;fillColor=#FFFFCC;strokeColor=#FF0000;" vertex="1" parent="1">
          <mxGeometry x="458.5" y="780" width="253" height="60" as="geometry" />
        </mxCell>
        <mxCell id="hBEnvzYEh9CuPVGx5UaX-57" style="edgeStyle=orthogonalEdgeStyle;html=1;labelBackgroundColor=none;endArrow=open;endSize=8;strokeColor=#ff0000;fontFamily=Verdana;fontSize=12;align=left;entryX=0.5;entryY=0;entryDx=0;entryDy=0;exitX=0.5;exitY=1;exitDx=0;exitDy=0;" edge="1" parent="1" source="hBEnvzYEh9CuPVGx5UaX-35" target="hBEnvzYEh9CuPVGx5UaX-56">
          <mxGeometry relative="1" as="geometry">
            <mxPoint x="1022" y="730" as="sourcePoint" />
            <mxPoint x="740" y="777" as="targetPoint" />
            <Array as="points">
              <mxPoint x="585" y="770" />
              <mxPoint x="585" y="770" />
            </Array>
          </mxGeometry>
        </mxCell>
        <mxCell id="hBEnvzYEh9CuPVGx5UaX-59" style="edgeStyle=orthogonalEdgeStyle;html=1;labelBackgroundColor=none;endArrow=open;endSize=8;strokeColor=#ff0000;fontFamily=Verdana;fontSize=12;align=left;entryX=1;entryY=0.5;entryDx=0;entryDy=0;exitX=0;exitY=0.5;exitDx=0;exitDy=0;" edge="1" parent="1" source="hBEnvzYEh9CuPVGx5UaX-56" target="hBEnvzYEh9CuPVGx5UaX-40">
          <mxGeometry relative="1" as="geometry">
            <mxPoint x="820" y="820" as="sourcePoint" />
            <mxPoint x="885" y="852" as="targetPoint" />
            <Array as="points">
              <mxPoint x="420" y="810" />
              <mxPoint x="420" y="810" />
            </Array>
          </mxGeometry>
        </mxCell>
        <mxCell id="hBEnvzYEh9CuPVGx5UaX-60" value="Yes" style="edgeLabel;html=1;align=center;verticalAlign=middle;resizable=0;points=[];" vertex="1" connectable="0" parent="hBEnvzYEh9CuPVGx5UaX-59">
          <mxGeometry x="-0.1515" y="1" relative="1" as="geometry">
            <mxPoint y="-11" as="offset" />
          </mxGeometry>
        </mxCell>
        <mxCell id="hBEnvzYEh9CuPVGx5UaX-62" value="Successful message acknowledgement" style="rhombus;whiteSpace=wrap;html=1;fillColor=#FFFFCC;strokeColor=#FF0000;" vertex="1" parent="1">
          <mxGeometry x="768.5" y="365" width="253" height="60" as="geometry" />
        </mxCell>
        <mxCell id="hBEnvzYEh9CuPVGx5UaX-63" style="edgeStyle=orthogonalEdgeStyle;html=1;labelBackgroundColor=none;endArrow=open;endSize=8;strokeColor=#ff0000;fontFamily=Verdana;fontSize=12;align=left;exitX=0.5;exitY=1;exitDx=0;exitDy=0;entryX=0.5;entryY=0;entryDx=0;entryDy=0;" edge="1" parent="1" source="hBEnvzYEh9CuPVGx5UaX-62" target="hBEnvzYEh9CuPVGx5UaX-44">
          <mxGeometry relative="1" as="geometry">
            <mxPoint x="1050" y="380" as="sourcePoint" />
            <mxPoint x="1050" y="414" as="targetPoint" />
          </mxGeometry>
        </mxCell>
        <mxCell id="hBEnvzYEh9CuPVGx5UaX-64" value="Yes" style="edgeLabel;html=1;align=center;verticalAlign=middle;resizable=0;points=[];" vertex="1" connectable="0" parent="hBEnvzYEh9CuPVGx5UaX-63">
          <mxGeometry x="-0.2044" y="2" relative="1" as="geometry">
            <mxPoint x="13" as="offset" />
          </mxGeometry>
        </mxCell>
        <mxCell id="hBEnvzYEh9CuPVGx5UaX-65" style="edgeStyle=orthogonalEdgeStyle;html=1;labelBackgroundColor=none;endArrow=open;endSize=8;strokeColor=#ff0000;fontFamily=Verdana;fontSize=12;align=left;entryX=0;entryY=0.5;entryDx=0;entryDy=0;exitX=0;exitY=0;exitDx=0;exitDy=0;" edge="1" parent="1" source="hBEnvzYEh9CuPVGx5UaX-56" target="-b5_aeEiTCpsvocbng9k-6">
          <mxGeometry relative="1" as="geometry">
            <mxPoint x="530" y="1090" as="sourcePoint" />
            <mxPoint x="648" y="640" as="targetPoint" />
            <Array as="points">
              <mxPoint x="522" y="760" />
              <mxPoint x="250" y="760" />
              <mxPoint x="250" y="120" />
            </Array>
          </mxGeometry>
        </mxCell>
        <mxCell id="hBEnvzYEh9CuPVGx5UaX-66" value="No" style="edgeLabel;html=1;align=center;verticalAlign=middle;resizable=0;points=[];" vertex="1" connectable="0" parent="hBEnvzYEh9CuPVGx5UaX-65">
          <mxGeometry x="-0.8862" y="-3" relative="1" as="geometry">
            <mxPoint x="16" y="13" as="offset" />
          </mxGeometry>
        </mxCell>
        <mxCell id="hBEnvzYEh9CuPVGx5UaX-67" style="edgeStyle=orthogonalEdgeStyle;html=1;labelBackgroundColor=none;endArrow=open;endSize=8;strokeColor=#ff0000;fontFamily=Verdana;fontSize=12;align=left;exitX=1;exitY=0.5;exitDx=0;exitDy=0;entryX=1;entryY=0.5;entryDx=0;entryDy=0;" edge="1" parent="1" source="hBEnvzYEh9CuPVGx5UaX-62" target="-b5_aeEiTCpsvocbng9k-6">
          <mxGeometry relative="1" as="geometry">
            <mxPoint x="1523" y="699" as="sourcePoint" />
            <mxPoint x="1120" y="330" as="targetPoint" />
            <Array as="points">
              <mxPoint x="1040" y="395" />
              <mxPoint x="1040" y="120" />
            </Array>
          </mxGeometry>
        </mxCell>
        <mxCell id="hBEnvzYEh9CuPVGx5UaX-68" value="No" style="edgeLabel;html=1;align=center;verticalAlign=middle;resizable=0;points=[];" vertex="1" connectable="0" parent="hBEnvzYEh9CuPVGx5UaX-67">
          <mxGeometry x="-0.9826" relative="1" as="geometry">
            <mxPoint y="-15" as="offset" />
          </mxGeometry>
        </mxCell>
      </root>
    </mxGraphModel>
  </diagram>
</mxfile>
